<?xml version="1.0" standalone="no"?>
<!DOCTYPE svg PUBLIC "-//W3C//DTD SVG 20010904//EN"
 "http://www.w3.org/TR/2001/REC-SVG-20010904/DTD/svg10.dtd">
<svg version="1.0" xmlns="http://www.w3.org/2000/svg"
 width="198.000000pt" height="198.000000pt" viewBox="0 0 198.000000 198.000000"
 preserveAspectRatio="xMidYMid meet">

<g transform="translate(0.000000,198.000000) scale(0.100000,-0.100000)"
fill="#000000" stroke="none">
<path d="M568 1718 l-418 -241 0 -486 0 -486 420 -242 419 -242 420 242 421
242 0 486 0 485 -419 242 c-231 133 -421 242 -423 242 -2 0 -191 -109 -420
-242z m818 -42 l389 -225 3 -458 2 -459 -395 -228 c-217 -125 -398 -226 -402
-223 -4 2 -182 104 -396 227 l-387 223 2 459 3 460 385 223 c212 123 390 224
396 224 6 1 186 -100 400 -223z"/>
<path d="M646 1561 c-4 -6 11 -11 36 -13 36 -2 44 -7 46 -25 3 -21 -1 -23 -37
-23 -47 0 -69 -26 -51 -60 9 -16 20 -20 61 -18 l50 2 -3 71 -3 70 -47 3 c-25
2 -49 -1 -52 -7z m84 -91 c0 -23 -32 -43 -54 -34 -16 6 -22 35 -9 47 3 4 19 7
35 7 21 0 28 -5 28 -20z"/>
<path d="M780 1563 c0 -26 46 -143 57 -143 7 0 17 19 23 43 22 84 25 85 44 10
18 -71 38 -67 64 15 25 78 26 82 13 82 -6 0 -18 -27 -27 -60 -9 -33 -20 -58
-24 -55 -3 2 -12 29 -19 60 -16 72 -36 72 -52 0 -7 -31 -15 -58 -19 -60 -4 -2
-14 23 -24 55 -9 33 -21 60 -26 60 -6 0 -10 -3 -10 -7z"/>
<path d="M1020 1555 c-19 -23 -7 -49 33 -68 56 -26 42 -66 -19 -51 -14 4 -24
2 -24 -5 0 -13 69 -15 88 -2 26 16 9 55 -30 74 -55 25 -46 53 15 49 17 -2 26
2 22 8 -9 15 -71 12 -85 -5z"/>
<path d="M1042 1368 c-7 -7 -11 -38 -10 -77 1 -57 2 -59 5 -18 4 44 6 47 33
47 27 0 29 -3 33 -47 l3 -48 2 53 2 52 -35 0 c-39 0 -48 21 -17 39 9 6 12 11
7 11 -6 0 -16 -5 -23 -12z"/>
<path d="M1323 1300 c0 -41 2 -58 4 -37 2 20 2 54 0 75 -2 20 -4 3 -4 -38z"/>
<path d="M652 1318 c-7 -7 -12 -16 -12 -22 0 -5 6 -3 13 6 6 9 21 18 32 21 20
5 20 5 0 6 -12 0 -26 -4 -33 -11z"/>
<path d="M765 1323 c11 -3 24 -10 28 -17 6 -7 7 -6 4 4 -2 8 -14 16 -28 17
-19 1 -20 1 -4 -4z"/>
<path d="M912 1288 l1 -43 4 37 c3 24 10 38 21 41 12 3 11 5 -5 6 -21 1 -23
-3 -21 -41z"/>
<path d="M1152 1318 c-20 -20 -12 -88 10 -88 6 0 6 6 -1 14 -7 8 -11 27 -9 43
4 37 44 45 57 11 6 -14 10 -17 10 -7 1 19 -18 39 -39 39 -9 0 -21 -5 -28 -12z"/>
<path d="M1259 1313 c-12 -16 -12 -17 1 -7 8 6 22 14 30 17 13 5 12 6 -1 6 -9
1 -23 -7 -30 -16z"/>
<path d="M831 1273 c1 -53 6 -49 11 10 2 20 0 37 -4 37 -4 0 -8 -21 -7 -47z"/>
<path d="M983 1275 c0 -27 2 -38 4 -22 2 15 2 37 0 50 -2 12 -4 0 -4 -28z"/>
<path d="M720 1275 c0 -8 2 -15 4 -15 2 0 6 7 10 15 3 8 1 15 -4 15 -6 0 -10
-7 -10 -15z"/>
<path d="M1241 1282 c-1 -20 18 -52 32 -52 9 0 9 2 0 8 -7 4 -16 19 -22 32 -5
14 -10 19 -10 12z"/>
<path d="M643 1256 c1 -11 9 -21 17 -23 10 -3 11 -2 4 4 -6 4 -14 15 -17 23
-5 11 -6 9 -4 -4z"/>
<path d="M992 883 c3 -59 6 -68 23 -71 16 -3 18 -1 8 9 -8 7 -13 38 -13 71 0
34 -4 58 -10 58 -7 0 -10 -25 -8 -67z"/>
<path d="M520 875 l0 -65 38 0 c47 0 72 24 72 67 0 39 -28 63 -73 63 l-37 0 0
-65z m67 47 c24 -15 26 -59 3 -82 -29 -29 -44 -21 -48 24 -5 60 11 80 45 58z"/>
<path d="M671 896 c-7 -8 -11 -30 -9 -48 3 -31 5 -33 43 -35 34 -1 36 0 11 5
-41 10 -46 32 -7 32 23 0 31 5 31 18 0 38 -46 56 -69 28z m49 -22 c0 -8 -9
-14 -20 -14 -22 0 -28 26 -7 33 16 6 27 -1 27 -19z"/>
<path d="M779 863 c10 -26 24 -48 31 -48 7 0 21 22 31 48 14 34 16 48 7 45 -7
-3 -17 -19 -22 -36 -5 -18 -12 -32 -16 -32 -4 0 -11 14 -16 32 -5 17 -15 33
-22 36 -9 3 -7 -11 7 -45z"/>
<path d="M898 899 c-18 -10 -23 -44 -12 -73 4 -11 18 -16 43 -15 35 1 35 2 7
8 -41 9 -46 31 -7 31 23 0 31 5 31 18 0 20 -18 42 -34 42 -6 0 -19 -5 -28 -11z
m46 -30 c-3 -5 -14 -9 -25 -9 -21 0 -26 26 -6 33 15 5 39 -12 31 -24z"/>
<path d="M1065 890 c-15 -16 -17 -26 -9 -48 8 -22 15 -27 44 -27 29 0 36 5 44
27 8 22 6 32 -9 48 -10 11 -26 20 -35 20 -9 0 -25 -9 -35 -20z m58 -19 c5 -20
-9 -51 -23 -51 -14 0 -31 37 -24 54 8 22 41 20 47 -3z"/>
<path d="M1180 838 c0 -39 4 -68 10 -68 6 0 10 9 10 19 0 15 8 21 33 23 28 3
32 7 35 37 4 42 -9 56 -54 56 l-34 0 0 -67z m68 20 c-2 -25 -8 -33 -23 -33
-15 0 -21 8 -23 33 -3 29 -1 32 23 32 24 0 26 -3 23 -32z"/>
<path d="M1311 896 c-7 -8 -11 -30 -9 -48 3 -31 5 -33 43 -35 34 -1 36 0 11 5
-41 10 -46 32 -7 32 23 0 31 5 31 18 0 38 -46 56 -69 28z m49 -22 c0 -8 -9
-14 -20 -14 -22 0 -28 26 -7 33 16 6 27 -1 27 -19z"/>
<path d="M1417 904 c-4 -4 -7 -27 -7 -51 0 -32 4 -43 15 -43 11 0 15 11 15 35
0 22 6 38 15 41 8 4 15 11 15 16 0 7 -5 6 -13 -1 -9 -7 -17 -7 -23 -1 -6 6
-13 7 -17 4z"/>
<path d="M847 513 c-13 -13 -7 -32 13 -38 27 -9 25 -25 -2 -26 -19 -1 -20 -2
-4 -6 10 -3 23 0 30 7 8 9 6 16 -11 27 -28 19 -29 30 -5 36 14 4 14 5 1 6 -9
0 -19 -2 -22 -6z"/>
<path d="M943 509 c22 -13 23 -59 1 -59 -9 0 -23 8 -31 18 -13 15 -13 15 -3
-6 8 -16 18 -22 33 -20 40 6 33 78 -8 78 -5 -1 -2 -5 8 -11z"/>
<path d="M1132 514 c11 -3 18 -19 21 -42 l4 -37 -1 40 c-1 32 -5 40 -21 42
-15 1 -15 0 -3 -3z"/>
<path d="M1190 509 c0 -5 5 -7 10 -4 6 3 10 8 10 11 0 2 -4 4 -10 4 -5 0 -10
-5 -10 -11z"/>
<path d="M1288 502 c9 -10 19 -17 21 -16 6 5 -20 34 -30 34 -5 0 -1 -8 9 -18z"/>
<path d="M770 501 c0 -6 4 -13 10 -16 6 -3 7 1 4 9 -7 18 -14 21 -14 7z"/>
<path d="M996 494 c-8 -22 11 -54 32 -53 14 0 14 2 2 6 -21 8 -30 25 -24 46 7
21 -2 23 -10 1z"/>
<path d="M1073 475 c0 -22 2 -30 4 -17 2 12 2 30 0 40 -3 9 -5 -1 -4 -23z"/>
<path d="M1252 490 c0 -14 2 -19 5 -12 2 6 2 18 0 25 -3 6 -5 1 -5 -13z"/>
<path d="M674 467 c-3 -10 -3 -21 0 -24 3 -4 6 1 6 10 0 12 9 17 30 17 17 0
30 3 30 8 0 4 -14 7 -30 7 -20 0 -32 -6 -36 -18z"/>
<path d="M1191 474 c0 -11 3 -14 6 -6 3 7 2 16 -1 19 -3 4 -6 -2 -5 -13z"/>
<path d="M805 468 c6 -14 2 -18 -16 -19 -19 -1 -20 -2 -5 -6 25 -7 44 13 27
30 -10 10 -11 9 -6 -5z"/>
<path d="M1111 463 c-1 -16 5 -23 17 -23 10 0 13 3 6 8 -6 4 -14 14 -17 22 -4
10 -6 8 -6 -7z"/>
<path d="M1258 448 c6 -6 18 -8 28 -6 14 3 12 5 -9 10 -19 3 -25 2 -19 -4z"/>
</g>
</svg>
